# xmcd
#
# Track frame offsets:
#	150
#	16415
#	29487
#	44007
#	57470
#	70195
#	81792
#	96155
#	109437
#	120985
#	132575
#	146455
#	164792
#	178967
#
# Disc length: 2584 seconds
#
# Revision: 1
# Processed by: cddbd v1.5.1PL0 Copyright (c) Steve Scherf et al.
# Submitted via: EasyCDDAExtractor 8.2.0.1
#
DISCID=d40a160e
DTITLE=Various Artist - I Grandi Successi Degli Anni '60 [CD2)
DYEAR=2005
DGENRE=italiani
TTITLE0=I Camaleonti - L'ora Dell'amore
TTITLE1=Carmen Villani - Piccola Piccola
TTITLE2=Massimo Ranieri - Se Bruciasse La Città
TTITLE3=Mina - Se Telefonando
TTITLE4=Fred Buongusto - Una Rotonda Sul Mare
TTITLE5=Gemelle Kessler - La Notte È Piccola
TTITLE6=Sergio Endrigo - Teresa
TTITLE7=Caterina Caselli - Insieme A Te Non Ci Sto Più
TTITLE8=Giogio Gaber - Te Lo Leggo Negli Occhi
TTITLE9=Iva Zanicchi - Zingara
TTITLE10=Domenico Modugno - Piove (Ciao Ciao Bambina)
TTITLE11=New Trolls - Una Miniera
TTITLE12=Riccardo Del Turco - Luglio
TTITLE13=Gigliola Cinquetti - Non Ho L'eta (Per Amarti)
EXTD=
EXTT0=
EXTT1=
EXTT2=
EXTT3=
EXTT4=
EXTT5=
EXTT6=
EXTT7=
EXTT8=
EXTT9=
EXTT10=
EXTT11=
EXTT12=
EXTT13=
PLAYORDER=
